<svg width="321" height="68" viewBox="0 0 321 68" fill="none" xmlns="http://www.w3.org/2000/svg">
<path d="M48.9235 17.2243L48.6343 26.4495L24.4149 52.6022C34.532 52.6022 40.9462 52.5042 44.6457 52.2999C43.5741 57.2638 42.7015 61.3209 41.8238 67.404C36.9593 66.9955 29.3748 66.8942 21.7854 66.8942C13.3267 66.8942 5.93281 66.9955 0 67.404L0.197257 58.0742L24.4149 32.0261C13.8131 32.0261 9.92144 32.1258 5.54664 32.2271C6.51622 27.5638 7.19827 22.3957 7.87864 17.2243C15.5617 17.5282 18.5774 17.6278 28.5958 17.6278C37.8369 17.6278 43.086 17.5282 48.9235 17.2243ZM76.4511 14.4841C60.6905 14.4841 48.6343 28.4739 48.6343 45.2054C48.6343 57.7736 55.9278 67.404 70.1271 67.404C85.9814 67.404 97.9456 53.4126 97.9456 36.5831C97.9456 24.1195 90.8426 14.4841 76.4511 14.4841ZM71.6835 53.9573C68.1813 53.9573 66.1402 50.8103 66.1402 44.6275C66.1402 35.4023 69.9332 28.0039 74.6039 28.0039C78.0058 28.0039 80.0486 31.048 80.0486 37.3287C80.0469 46.4526 76.3541 53.9573 71.6835 53.9573ZM299.221 13.79C283.258 13.79 271.042 27.9641 271.042 44.9065C271.042 57.6458 278.431 67.404 292.817 67.404C308.879 67.404 321 53.2283 321 36.1812C321 23.5499 313.81 13.79 299.221 13.79ZM294.091 53.9042C290.587 53.9042 288.548 50.7572 288.548 44.5744C288.548 35.3492 292.342 27.9524 297.011 27.9524C300.412 27.9524 302.458 30.9932 302.458 37.2756C302.456 46.4028 298.76 53.9042 294.091 53.9042ZM179.741 32.7336C181.007 24.1195 180.326 16.3126 170.699 16.3126C163.695 16.3126 156.108 22.1931 150.759 32.0261C151.928 23.9136 151.244 16.3126 141.714 16.3126C134.517 16.3126 126.735 22.4954 121.384 32.7336C122.747 26.0426 122.456 18.4383 122.066 16.8174C116.523 17.7308 111.662 18.2357 104.851 18.4383C105.047 23.1032 104.754 29.1813 103.878 34.9639L101.642 50.1676C100.766 56.1511 99.7928 63.0447 98.8199 67.404H116.911C117.009 64.7652 117.692 60.6101 118.176 56.9615L119.733 46.5224C120.996 39.7268 126.441 31.7222 130.624 31.7222C133.056 31.7222 132.961 34.0522 132.279 38.4115L130.527 50.1676C129.649 56.1511 128.68 63.0447 127.705 67.404H145.99C146.088 64.7652 146.672 60.6101 147.157 56.9615L148.711 46.5224C149.977 39.7268 155.426 31.7222 159.606 31.7222C162.04 31.7222 161.944 33.9492 161.551 36.9933L157.183 67.404H173.872L179.741 32.7336ZM267.118 51.4879L265.172 63.4516C262.157 65.0724 256.515 67.4057 249.999 67.4057C238.91 67.4057 236.675 61.5251 238.424 49.0566L241.246 28.9837H235.789L237.331 15.9904L243.288 15.7048L245.527 6.27696L262.349 -0.00878906L260.211 15.7048H271.786C271.398 17.3256 270.032 26.2502 269.649 28.9837H258.36L255.831 47.5354C255.151 52.2999 255.542 54.0238 258.845 54.0238C261.282 54.0221 264.878 52.6022 267.118 51.4879ZM203.298 57.9497C209.422 57.1957 213.636 51.3318 214.649 45.4811L214.82 43.9134C212.188 43.3288 208.385 42.8838 204.698 43.3322C201.185 43.7573 198.263 45.2071 196.692 47.3062C195.507 48.8141 194.912 50.6177 195.176 52.7683C195.575 55.99 199.161 58.4512 203.298 57.9497ZM198.086 67.2164C189.444 68.2709 183.751 64.8632 182.043 57.111C180.971 52.2335 182.459 46.6768 185.062 43.3621C188.548 39.026 194.228 36.2426 201.16 35.4023C206.739 34.7148 211.44 35.0536 215.836 35.8806L216.018 35.1316C216.144 33.9343 216.271 32.7386 216.095 31.307C215.639 27.6319 212.722 25.4431 205.518 26.3233C200.659 26.9161 196.035 28.6599 192.444 30.6444L188.952 20.1604C193.818 17.3854 199.952 15.273 206.971 14.4161C220.38 12.7819 229.801 17.03 231.008 26.7949C231.328 29.3923 231.366 32.144 231.037 34.6417C229.315 46.7167 228.212 55.8024 227.728 61.8922C227.65 62.8354 227.657 64.4546 227.742 66.7514L211.102 66.7364C211.456 65.7848 211.774 64.4945 212.056 62.8753C212.244 61.8108 212.377 60.4673 212.461 58.8398C208.945 63.6342 204.111 66.4807 198.086 67.2164Z" fill="white"/>
</svg>
