<svg width="203" height="56" viewBox="0 0 203 56" fill="none" xmlns="http://www.w3.org/2000/svg">
<path d="M0.119654 1.11541C0.0508073 1.22901 -0.0180395 6.11367 0.00490945 11.9525C0.00490945 21.7446 0.0508072 22.6079 0.395041 22.8805C0.693377 23.085 1.61133 23.1532 3.67673 23.1077L6.54535 23.0396L6.61419 19.6544C6.63714 17.6096 6.77484 16.1329 6.93548 15.9511C7.11907 15.7239 8.5419 15.6558 13.4759 15.6558C19.718 15.6558 19.7639 15.6558 20.2688 16.1783C20.9573 16.8826 23.5734 19.8134 24.7897 21.222C26.465 23.1986 26.3273 23.1532 30.1368 23.1532C32.8677 23.1532 33.5103 23.085 33.5103 22.8351C33.5103 22.6533 32.3629 21.1084 30.9859 19.3817C29.5861 17.6324 28.4845 16.0874 28.5075 15.9511C28.5533 15.7921 29.1959 15.1787 29.9532 14.5653C30.7105 13.9746 31.422 13.2702 31.5597 12.9976C31.6973 12.7477 31.9039 12.3842 32.0416 12.2252C32.1793 12.0434 32.4776 11.3164 32.6842 10.5894C33.0743 9.31709 33.0743 9.2035 32.6842 7.63586C31.9268 4.63691 30.5729 2.70577 28.714 1.95603C25.9372 0.865503 26.3044 0.88822 12.9022 0.88822C5.03072 0.88822 0.21145 0.979097 0.119654 1.11541ZM25.3405 7.04516C26.1437 7.97665 26.1208 8.93086 25.2717 9.77148L24.5832 10.4303L15.7938 10.3849L7.00433 10.3167L6.93548 8.31744L6.86663 6.34086H24.7438L25.3405 7.04516ZM54.784 1.41076C54.5086 1.70611 53.407 3.20559 52.3284 4.7505C49.5746 8.68095 48.496 10.2259 46.7289 12.7023C45.5355 14.3835 42.0244 19.3363 40.0737 22.1308C39.9131 22.3353 39.959 22.5625 40.1655 22.7896C40.4179 23.1077 40.9687 23.1532 44.0439 23.1077L47.6239 23.0396L49.1156 20.8131L50.6073 18.6093L59.0983 18.6547L67.5894 18.7229L68.668 20.1996C69.2647 21.0175 70.045 22.0172 70.4122 22.4034L71.0777 23.1532H74.4512C77.1591 23.1532 77.8017 23.085 77.8017 22.8351C77.8017 22.6533 77.1591 21.631 76.3789 20.5632C74.5659 18.0868 72.5694 15.2923 70.481 12.3615C69.586 11.1119 68.7369 9.90779 68.5762 9.70331C68.4156 9.47612 67.8189 8.63551 67.2452 7.81761C66.6715 6.99972 65.524 5.40936 64.6749 4.25068C63.8029 3.11471 63.1144 2.11506 63.1144 2.02419C63.1144 1.95603 62.9079 1.66068 62.6554 1.38805C62.1964 0.910942 61.9899 0.88822 58.7312 0.88822C55.4265 0.88822 55.2659 0.910936 54.784 1.41076ZM60.7507 8.88542C61.3932 9.7942 62.3571 11.2255 62.9538 12.0661C63.5275 12.884 63.9406 13.6338 63.8717 13.7019C63.6881 13.8837 54.7381 13.8837 54.5545 13.7019C54.4856 13.6338 54.8987 12.884 55.4724 12.0661C56.0691 11.2255 57.0329 9.7942 57.6755 8.88542C58.364 7.88577 58.9607 7.24963 59.2131 7.24963C59.4655 7.24963 60.0622 7.88577 60.7507 8.88542ZM83.9291 1.04726C83.8373 1.11542 83.7684 6.02279 83.7684 11.9298C83.7684 21.4719 83.8143 22.6988 84.1356 23.0396C84.4339 23.3349 84.9847 23.3803 87.3026 23.3349L90.0794 23.2668L90.1941 15.5422C90.3089 8.34016 90.3777 7.24963 90.8596 7.24963C91.0432 7.24963 92.0759 8.02209 93.7512 9.40797C94.2561 9.83963 95.1281 10.5439 95.7019 10.9983C96.2756 11.43 97.5378 12.4296 98.5246 13.2248C99.5114 13.9973 100.98 15.1332 101.76 15.7694C104.537 17.9504 106.603 19.6089 106.717 19.7453C106.786 19.8134 107.819 20.654 109.035 21.631L111.238 23.3804H114.772C117.228 23.3804 118.421 23.2895 118.605 23.1077C118.811 22.9032 118.88 20.1996 118.88 12.3615V1.86515L118.352 1.38805C117.871 0.933661 117.572 0.88822 115.163 0.88822C113.694 0.88822 112.34 0.956379 112.133 1.02454C111.812 1.13813 111.766 1.97875 111.766 8.06753C111.766 14.02 111.72 14.9969 111.422 15.1105C111.215 15.2014 110.435 14.747 109.425 13.9291C108.507 13.1794 106.832 11.8389 105.685 10.9074C104.56 9.99867 103.114 8.83998 102.472 8.34016C101.852 7.84033 100.911 7.0906 100.406 6.68165C99.3966 5.81831 98.2721 4.93226 95.7019 2.95568C94.738 2.22866 93.843 1.4562 93.6594 1.25173C93.384 0.93366 92.7185 0.88822 88.7024 0.88822C86.1551 0.88822 83.9979 0.956381 83.9291 1.04726ZM131.617 1.36533C130.217 1.84243 129.161 2.81937 128.519 4.22796C128.06 5.25033 128.037 5.682 128.037 11.7708V18.2458L128.748 19.6544C129.276 20.7222 129.712 21.2447 130.653 21.8809C131.319 22.3353 132.03 22.6988 132.237 22.6988C132.443 22.6988 132.695 22.7896 132.764 22.926C132.856 23.0623 136.895 23.1532 144.101 23.1532C156.654 23.1532 155.989 23.244 157.779 21.4492C159.224 20.0179 159.5 18.9728 159.5 14.747C159.5 11.5663 159.454 11.1346 159.087 10.7938C158.697 10.4531 157.802 10.4303 149.953 10.4758L141.255 10.5439L141.187 12.4978C141.141 14.0654 141.21 14.5425 141.485 14.8379C141.806 15.156 142.632 15.2014 147.589 15.2014C152.34 15.2014 153.35 15.2468 153.441 15.5195C153.579 15.9057 153.212 16.7009 152.546 17.4052L152.087 17.9277H143.413C135.656 17.9277 134.738 17.8823 134.463 17.5415C134.21 17.2689 134.141 16.1783 134.141 12.8386C134.141 8.63551 134.164 8.47647 134.669 7.81761C135.817 6.36358 135.862 6.36358 144.606 6.34086C153.35 6.34086 153.051 6.29542 153.418 7.77217C153.648 8.68095 154.153 8.83998 156.677 8.83998C159.179 8.83998 159.5 8.70367 159.5 7.61314C159.5 5.29577 157.366 2.02418 155.599 1.66068C155.277 1.59252 154.658 1.43348 154.222 1.31989C153.74 1.18357 149.173 1.06998 143.091 1.04726C134.049 1.00182 132.627 1.04726 131.617 1.36533ZM175.335 1.11541L169.483 1.22901L169.414 11.9071C169.368 21.7446 169.391 22.6079 169.758 22.8578C170.056 23.085 173.361 23.1532 184.422 23.1532C197.228 23.1532 198.697 23.1077 198.834 22.7896C199.133 22.0172 198.972 18.9501 198.605 18.4275L198.261 17.9277H187.383C176.849 17.9277 176.482 17.905 176.253 17.496C175.931 16.8826 175.954 15.5876 176.321 15.1332C176.574 14.7924 177.492 14.747 186.006 14.7016L195.415 14.6334L195.484 12.4978C195.53 11.1346 195.461 10.2713 195.277 10.0668C195.071 9.79419 193.395 9.74876 185.662 9.74876C175.289 9.74876 176.023 9.86235 176.023 8.24928C176.023 7.79489 176.138 7.24963 176.253 6.99972C176.482 6.59077 176.849 6.56805 187.589 6.56805C197.503 6.56805 198.72 6.52261 198.834 6.20454C198.903 6.00007 198.972 5.02314 198.972 4.00077C198.972 2.31954 198.903 2.06963 198.398 1.50164L197.802 0.88822L189.494 0.933661C184.927 0.956381 178.547 1.04726 175.335 1.11541ZM0.00490945 33.6495V44.5093C-0.0180395 54.1196 0.0278583 54.8693 0.395041 55.142C0.693377 55.3464 1.61133 55.4146 3.67673 55.3692L6.54535 55.301L6.66009 51.6659C6.72894 49.6666 6.86663 47.8945 6.95843 47.7355C7.09612 47.531 8.65665 47.4628 13.43 47.4628H19.718L21.8523 49.8938C23.0227 51.2342 24.652 53.0291 25.4782 53.8697L26.9928 55.4146H30.3434C32.2022 55.4146 33.7628 55.3237 33.8316 55.2101C33.9004 55.0965 33.6021 54.574 33.1661 54.0287C32.7301 53.4835 31.5826 52.0294 30.6417 50.8253C29.7008 49.6212 28.8287 48.5761 28.691 48.4852C28.278 48.2353 28.4386 47.4856 28.9664 47.2129C29.2648 47.0539 29.632 46.804 29.7926 46.6449C29.9532 46.4632 30.2745 46.2133 30.4811 46.0542C31.2843 45.4862 32.1334 44.1004 32.5924 42.6691C33.0513 41.2605 33.0743 41.1696 32.6842 39.5111C32.0875 36.9438 31.1466 35.3989 29.5402 34.3311C27.7731 33.1497 27.6583 33.1497 13.3382 33.1497H0.00490945V33.6495ZM25.4552 38.9658C26.1437 39.8291 26.0749 40.7834 25.2717 41.5785L24.5832 42.2374L15.7938 42.1919L7.00433 42.1238L6.93548 40.2381L6.86663 38.3751H24.9963L25.4552 38.9658ZM45.765 33.5586C44.6635 34.013 43.5619 34.8763 43.1259 35.6715C42.3227 37.1255 42.2309 37.7844 42.2309 43.7596C42.2309 50.3255 42.4145 51.6432 43.539 53.1199C44.2963 54.1196 44.6176 54.3695 45.8109 54.9602C46.7289 55.4146 47.0731 55.4146 59.236 55.3464C72.6152 55.2783 72.3628 55.301 74.061 54.0969C74.4512 53.8242 75.0249 53.2108 75.3232 52.7337C75.8511 51.8931 75.8511 51.8249 75.8511 44.7365C75.8511 38.0116 75.8281 37.5345 75.3921 36.7847C74.7724 35.6942 73.6939 34.5355 72.8906 34.1266C71.0777 33.1951 70.5728 33.1497 58.4099 33.1724C47.9452 33.1724 46.6141 33.2178 45.765 33.5586ZM69.0352 39.0567C69.5171 39.5111 69.5401 39.6928 69.5401 43.9186C69.5401 47.9172 69.4942 48.3716 69.1041 48.8487L68.668 49.394L59.3508 49.4621C53.0628 49.5076 49.8729 49.4394 49.5746 49.2804C49.1385 49.0532 49.1156 48.8033 49.1156 44.2821C49.1156 39.8064 49.1385 39.4883 49.5746 39.0567C50.0106 38.625 50.3319 38.6023 59.2819 38.6023C68.2779 38.6023 68.5533 38.625 69.0352 39.0567ZM82.3915 33.4677C82.3915 33.7631 83.1718 34.9672 85.1454 37.6708C88.1287 41.7603 89.7122 43.9868 90.6531 45.3272C91.2268 46.1451 91.8005 46.9403 91.9153 47.0766C92.053 47.2356 92.4661 47.8036 92.8562 48.3716C94.4626 50.7117 96.5051 53.5516 97.2394 54.4377L98.0197 55.4146H105.019L106.901 52.8473C108.897 50.0983 109.815 48.8487 112.822 44.6229C115.782 40.5107 117.71 37.8298 119.179 35.8305C121.129 33.1724 121.106 33.1497 116.608 33.1497C112.638 33.1497 112.638 33.1497 111.697 34.6264C111.376 35.1262 110.504 36.3758 109.77 37.3982C109.035 38.4205 107.222 40.9878 105.753 43.078C102.265 48.0081 101.37 49.1668 101.026 49.1668C100.751 49.1668 99.9474 48.099 96.1379 42.5782C95.0822 41.0787 93.7971 39.2384 93.2463 38.4887C92.7185 37.739 91.7776 36.4212 91.1809 35.5806C89.345 32.9906 89.6892 33.1497 85.7879 33.1497C83.0799 33.1497 82.3915 33.2178 82.3915 33.4677ZM128.886 33.6495C128.656 34.5128 128.725 53.5289 128.978 54.1423C129.46 55.4373 129.299 55.4146 144.399 55.3692L158.238 55.301L158.306 52.8019C158.352 50.6435 158.306 50.28 157.962 50.0301C157.664 49.8029 155.162 49.7348 146.993 49.7348C138.754 49.7348 136.321 49.6666 136 49.4394C135.702 49.2122 135.61 48.8941 135.679 47.9172L135.748 46.6677L145.501 46.5541L155.254 46.4405L155.323 44.5093C155.415 41.4195 156.356 41.6694 145.363 41.6012C138.318 41.5558 135.954 41.4649 135.817 41.2605C135.725 41.1014 135.633 40.5107 135.633 39.92C135.633 39.0794 135.725 38.784 136.069 38.6023C136.367 38.466 140.36 38.3751 147.429 38.3751H158.352V36.035C158.352 34.5128 158.261 33.604 158.077 33.4223C157.87 33.2178 154.29 33.1497 143.413 33.1497H129.024L128.886 33.6495ZM169.529 33.3087C169.437 33.3769 169.368 38.2161 169.368 44.0549C169.368 54.1196 169.391 54.6876 169.804 55.0511C170.148 55.3692 170.653 55.4146 172.948 55.3692L175.679 55.301L175.748 51.8022C175.771 49.6893 175.908 48.1671 176.046 47.9854C176.253 47.7582 177.675 47.69 182.678 47.69H189.035L191.651 50.689C193.097 52.3475 194.68 54.0742 195.162 54.5513L196.057 55.4146H199.454C201.496 55.4146 202.896 55.3237 202.988 55.1874C203.126 54.9829 202.047 53.3926 201.382 52.8019C201.244 52.6656 200.51 51.7568 199.729 50.7571C198.972 49.7575 198.169 48.8033 197.962 48.6215C197.388 48.1444 197.526 47.5083 198.306 47.0993C199.224 46.6449 200.372 45.509 201.198 44.2594C201.795 43.3052 201.841 43.1234 201.818 40.8742C201.795 37.9889 201.359 36.8302 199.569 35.0581C197.595 33.1042 197.939 33.1497 182.747 33.1497C175.564 33.1497 169.597 33.2178 169.529 33.3087ZM194.612 38.9885C195.002 39.4884 195.094 39.8064 194.956 40.5334C194.703 42.2601 194.933 42.2374 185.088 42.2374C178.593 42.2374 176.275 42.1692 176.069 41.9648C175.771 41.6694 175.679 38.7841 175.954 38.5341C176.023 38.4433 180.154 38.3751 185.111 38.3751H194.13L194.612 38.9885Z" fill="white"/>
</svg>
